A lawyer conducts business from the back of his Lincoln town car while representing a high-profile client in Beverly Hills.

Director:
Brad Furman
Writers:
John Romano (screenplay), Michael Connelly (novel)
Stars:
Matthew McConaughey, Marisa Tomei and Ryan Phillippe 

Media info:

General
Complete name                    : E:\torrent2\The Lincoln Lawyer 2011 BluRay rip,mkv 1080p AVC DTS-5.1.ACB-Team\The Lincoln Lawyer 2011 BluRay rip,mkv 1080p AVC DTS-5.1.ACB-Team.mkv
Format                           : Matroska
File size                        : 10.5 GiB
Duration                         : 1h 58mn
Overall bit rate                 : 12.7 Mbps
Movie name                       : movie
Encoded date                     : UTC 2011-07-05 15:10:53
Writing application              : mkvmerge v3.2.0 ('Beginnings') built on Feb 12 2010 16:46:17
Writing library                  : libebml v0.7.9 + libmatroska v0.8.1

Video
ID                               : 1
Format                           : AVC
Format/Info                      : Advanced Video Codec
Format profile                   : High@L4.1
Format settings, CABAC           : Yes
Format settings, ReFrames        : 2 frames
Format settings, GOP             : M=4, N=16
Muxing mode                      : Container profile=Unknown@0.0
Codec ID                         : V_MPEG4/ISO/AVC
Duration                         : 1h 58mn
Bit rate mode                    : Variable
Bit rate                         : 11.4 Mbps
Maximum bit rate                 : 35.0 Mbps
Width                            : 1 920 pixels
Height                           : 1 080 pixels
Display aspect ratio             : 16:9
Frame rate                       : 23.976 fps
Color space                      : YUV
Chroma subsampling               : 4:2:0
Bit depth                        : 8 bits
Scan type                        : Progressive
Bits/(Pixel*Frame)               : 0.230
Stream size                      : 9.02 GiB (86%)
Writing library                  : x264 core 115 r1995 c1e60b9
Encoding settings                : cabac=1 / ref=1 / deblock=1:0:0 / analyse=0x3:0x3 / me=dia / subme=1 / psy=1 / psy_rd=1.00:0.00 / mixed_ref=0 / me_range=16 / chroma_me=1 / trellis=0 / 8x8dct=1 / cqm=0 / deadzone=21,11 / fast_pskip=1 / chroma_qp_offset=0 / threads=3 / sliced_threads=0 / slices=4 / nr=0 / decimate=1 / interlaced=0 / bluray_compat=1 / constrained_intra=0 / bframes=3 / b_pyramid=0 / b_adapt=1 / b_bias=0 / direct=1 / weightb=1 / open_gop=0 / weightp=1 / keyint=24 / keyint_min=1 / scenecut=40 / intra_refresh=0 / rc_lookahead=0 / rc=abr / mbtree=0 / bitrate=11417 / ratetol=1.0 / qcomp=0.60 / qpmin=0 / qpmax=69 / qpstep=4 / vbv_maxrate=35000 / vbv_bufsize=30000 / nal_hrd=vbr / ip_ratio=1.10 / pb_ratio=1.10 / aq=1:1.00

Audio
ID                               : 2
Format                           : DTS
Format/Info                      : Digital Theater Systems
Codec ID                         : A_DTS
Duration                         : 1h 58mn
Bit rate mode                    : Constant
Bit rate                         : 1 510 Kbps
Channel(s)                       : 6 channels
Channel positions                : Front: L C R, Side: L R, LFE
Sampling rate                    : 48.0 KHz
Bit depth                        : 24 bits
Stream size                      : 1.25 GiB (12%)
Language                         : English

Text #1
ID                               : 3
Format                           : VobSub
Muxing mode                      : zlib
Codec ID                         : S_VOBSUB
Codec ID/Info                    : The same subtitle format used on DVDs
Language                         : English

Text #2
ID                               : 4
Format                           : VobSub
Muxing mode                      : zlib
Codec ID                         : S_VOBSUB
Codec ID/Info                    : The same subtitle format used on DVDs
Language                         : Spanish

Text #3
ID                               : 5
Format                           : UTF-8
Codec ID                         : S_TEXT/UTF8
Codec ID/Info                    : UTF-8 Plain Text
Language                         : Dutch

Menu
00:00:00.000                     : en:00:00:00.000
00:05:07.015                     : en:00:05:07.015
00:16:50.050                     : en:00:16:50.050
00:20:06.204                     : en:00:20:06.204
00:30:21.986                     : en:00:30:21.986
00:38:23.342                     : en:00:38:23.342
00:48:25.152                     : en:00:48:25.152
00:55:07.220                     : en:00:55:07.220
00:59:10.255                     : en:00:59:10.255
01:03:16.626                     : en:01:03:16.626
01:09:03.931                     : en:01:09:03.931
01:15:28.857                     : en:01:15:28.857
01:23:21.454                     : en:01:23:21.454
01:29:44.045                     : en:01:29:44.045
01:37:34.139                     : en:01:37:34.139
01:50:00.343                     : en:01:50:00.343

